<svg xmlns="http://www.w3.org/2000/svg" version="1.1" xmlns:xlink="http://www.w3.org/1999/xlink" width="512" height="512" x="0" y="0" viewBox="0 0 56 56" style="enable-background:new 0 0 512 512" xml:space="preserve" fill-rule="evenodd" class=""><g><path d="M32.892 52.029c.27 0 .49-.22.49-.49l.008-4.215a2.904 2.904 0 0 0-2.904-2.909h-4.95a2.905 2.905 0 0 0-2.904 2.91l.009 4.215c0 .27.22.489.49.489zm-.489-.98H23.62l-.007-3.726a1.92 1.92 0 0 1 1.923-1.928h4.95a1.923 1.923 0 0 1 1.923 1.927zM21.376 51.012c.27 0 .49-.22.49-.49l.008-4.215a2.904 2.904 0 0 0-2.904-2.909h-4.95a2.905 2.905 0 0 0-2.904 2.91l.009 4.215c0 .27.22.489.49.489zm-.489-.98h-8.783l-.007-3.726a1.92 1.92 0 0 1 1.923-1.928h4.95a1.923 1.923 0 0 1 1.923 1.927zM44.407 51.012c.27 0 .49-.22.49-.49l.008-4.215a2.904 2.904 0 0 0-2.904-2.909h-4.95a2.905 2.905 0 0 0-2.904 2.91l.009 4.215c0 .27.22.489.49.489zm-.489-.98h-8.783l-.007-3.726a1.92 1.92 0 0 1 1.923-1.928h4.95a1.923 1.923 0 0 1 1.923 1.927zM39.377 36.008c-1.812 0-3.283 1.471-3.283 3.283s1.471 3.283 3.283 3.283a3.283 3.283 0 0 0 0-6.566zm0 .98a2.304 2.304 0 1 1-.002 4.608 2.304 2.304 0 0 1 .002-4.608zM22.806 16.118c-2.313 0-4.19 1.877-4.19 4.189s1.877 4.189 4.19 4.189c2.312 0 4.188-1.877 4.188-4.189s-1.876-4.189-4.188-4.189zm0 .98c1.77 0 3.208 1.438 3.208 3.209s-1.437 3.21-3.208 3.21c-1.772 0-3.21-1.44-3.21-3.21s1.438-3.21 3.21-3.21z" fill="#000000" opacity="1" data-original="#000000" class=""></path><path d="M32.095 7.194a1.486 1.486 0 0 0-1.474 1.701l.187 1.292a2.103 2.103 0 0 0 1.905 1.796 4.041 4.041 0 0 0 2.398 2.835l-.574 3.096h-.848a.49.49 0 0 0-.49.49v2.007c0 .27.22.49.49.49h2.168a1.329 1.329 0 0 0-.196.094l-7.294 4.21a5.667 5.667 0 0 1-2.832.76h-7.32a2.338 2.338 0 0 0-2.34 2.345l.015 7.887a3.287 3.287 0 0 0 .475 6.537 3.287 3.287 0 0 0 3.263-3.675v-7.764a.49.49 0 0 0-.98 0v5.791a3.28 3.28 0 0 0-1.778-.884l-.014-7.895a1.36 1.36 0 0 1 1.359-1.363h7.32a6.646 6.646 0 0 0 3.322-.89l7.294-4.21a.424.424 0 0 1 .578.154l.462.8a.422.422 0 0 1-.155.578l-9.806 5.78a2.403 2.403 0 0 0-1.183 2.069v6.519a3.287 3.287 0 0 0 1.838 6.008 3.287 3.287 0 1 0-.858-6.457v-6.07c0-.504.267-.97.7-1.226l9.803-5.776a1.402 1.402 0 0 0 .51-1.915l-.461-.8a1.402 1.402 0 0 0-.71-.607h2.737a.49.49 0 0 0 .49-.49v-2.007a.49.49 0 0 0-.49-.49h-.847l-.575-3.096a4.037 4.037 0 0 0 2.399-2.835 2.104 2.104 0 0 0 1.906-1.796l.187-1.291a1.488 1.488 0 0 0-1.474-1.702l.04-.316a2.453 2.453 0 0 0-.595-1.926 2.454 2.454 0 0 0-1.837-.828h-4.324a2.452 2.452 0 0 0-2.431 2.754zM26.637 38.53a2.306 2.306 0 0 0 1.249 4.243 2.306 2.306 0 1 0-.993-4.386.486.486 0 0 1-.256.143zm-7.989.594a2.307 2.307 0 1 0-2.282 2.631c1.184 0 2.16-.895 2.29-2.044a.454.454 0 0 1-.008-.09zm15.531-20.23h4.937v1.028H34.18zm3.066-3.772h-1.193l-.514 2.776h2.221zm-.597-.98a3.056 3.056 0 0 1-3.032-2.677l-.588-4.708a1.468 1.468 0 0 1 1.458-1.652h4.324a1.472 1.472 0 0 1 1.459 1.652l-.589 4.708a3.055 3.055 0 0 1-3.032 2.677zm-4.429-5.95a.507.507 0 0 0-.629.564l.187 1.292c.065.441.38.792.788.915zm8.512 2.771c.408-.123.724-.474.787-.915l.188-1.292a.508.508 0 0 0-.629-.564z" fill="#000000" opacity="1" data-original="#000000" class=""></path></g></svg>