<svg xmlns="http://www.w3.org/2000/svg" version="1.1" xmlns:xlink="http://www.w3.org/1999/xlink" width="512" height="512" x="0" y="0" viewBox="0 0 64 64" style="enable-background:new 0 0 512 512" xml:space="preserve" class=""><g><path d="M50 15h-2v2a2 2 0 0 0-2 2v2a2 2 0 0 0 2 2h2v2h-4v2h2v2h2v-2a2 2 0 0 0 2-2v-2a2 2 0 0 0-2-2h-2v-2h4v-2h-2zM14 35h2v2h-2zM14 42H3a1 1 0 0 0-1 1v16a1 1 0 0 0 1 1h13v-2H4V44h11a1 1 0 0 0 1-1v-4h-2zM48 35h2v2h-2zM61 42H50v-3h-2v4a1 1 0 0 0 1 1h11v14H48v2h13a1 1 0 0 0 1-1V43a1 1 0 0 0-1-1z" fill="#000000" opacity="1" data-original="#000000" class=""></path><path d="m59.89 7.45 2-4A1 1 0 0 0 61 2H3a1 1 0 0 0-.89 1.45l2 4A.977.977 0 0 0 5 8h2.7l-1.76 6.6A5.957 5.957 0 0 0 4 19v1c0 7.53 10.12 12.68 10.55 12.89a.975.975 0 0 0 .9 0C15.88 32.68 26 27.53 26 20v-1a5.957 5.957 0 0 0-1.94-4.4L22.3 8H29v20h-6a1 1 0 0 0-1 1v4a6.981 6.981 0 0 0 3 5.72V42a7 7 0 0 0 3.63 6.13l-.32 1.93a.949.949 0 0 0-.72.03l-9 4A.987.987 0 0 0 18 55v6a1 1 0 0 0 1 1h26a1 1 0 0 0 1-1v-6a.987.987 0 0 0-.59-.91l-9-4a.949.949 0 0 0-.72-.03l-.32-1.93A7 7 0 0 0 39 42v-2a3.009 3.009 0 0 0 3-3v-2a7.008 7.008 0 0 0-7-7V8h6.7l-2.32 8.67a11 11 0 1 0 19.24 0L56.3 8H59a.977.977 0 0 0 .89-.55zM24 19v1c0 5.49-7.12 9.82-9 10.87-1.88-1.05-9-5.38-9-10.87v-1a4 4 0 0 1 4-4c2.39 0 4 2.01 4 5a1 1 0 0 0 2 0c0-2.99 1.61-5 4-5a4 4 0 0 1 4 4zM8.37 13.23 9.77 8h10.46l1.4 5.23A5.889 5.889 0 0 0 20 13a5.608 5.608 0 0 0-5 2.92A5.608 5.608 0 0 0 10 13a5.889 5.889 0 0 0-1.63.23zm27.85 38.96L44 55.65V60H20v-4.35l7.78-3.46 3.51 3.52a1.008 1.008 0 0 0 1.42 0zm-6.15-.53.47-2.82a6.741 6.741 0 0 0 2.92 0l.47 2.82L32 53.59zM37 42a5 5 0 0 1-10 0v-5.38l3.12-1.56L37 36.78zm3-7v2a1 1 0 0 1-1 1v-2a1 1 0 0 0-.76-.97l-8-2a.978.978 0 0 0-.69.08l-4 2a.991.991 0 0 0-.55.88A4.979 4.979 0 0 1 24 33v-3h11a5 5 0 0 1 5 5zm18-13a9 9 0 1 1-9-9 9.014 9.014 0 0 1 9 9zm-15.63-8.76L43.77 8h10.46l1.4 5.24a10.932 10.932 0 0 0-13.26 0zM34 6a1 1 0 0 0-1 1v21h-2V7a1 1 0 0 0-1-1H5.62l-1-2h54.76l-1 2z" fill="#000000" opacity="1" data-original="#000000" class=""></path><path d="M29 38h2v2h-2zM33 38h2v2h-2z" fill="#000000" opacity="1" data-original="#000000" class=""></path></g></svg>