<svg xmlns="http://www.w3.org/2000/svg" version="1.1" xmlns:xlink="http://www.w3.org/1999/xlink" width="512" height="512" x="0" y="0" viewBox="0 0 64 64" style="enable-background:new 0 0 512 512" xml:space="preserve" class=""><g><path d="M18.293 15.707 19.586 17l-1.293 1.293 1.414 1.414L22.414 17l-2.707-2.707z" fill="#000000" opacity="1" data-original="#000000" class=""></path><path d="M56 27.197 48.131 39H53v22h-6V47h4.869L44 35.197 36.131 47H41v14h-6v-6h4.869L32 43.197 24.131 55H29v6h-2c0-2.206-1.794-4-4-4V43.208c0-.86-.089-1.703-.247-2.524A18.2 18.2 0 0 0 37 22.871v-.166l12 1.2V24c0 1.103.897 2 2 2h2c1.103 0 2-.897 2-2V12c0-1.103-.897-2-2-2h-2c-1.103 0-2 .897-2 2v.095l-18.198 1.82A1.993 1.993 0 0 0 29 15.905V21c0 5.514-4.486 10-10 10v-2.17l.451.09A4.646 4.646 0 0 0 25 24.37v-3.946l2.414-2.414-.707-.707A5.789 5.789 0 0 1 25 13.182v-.172h5.619l-.881-1.759a10.006 10.006 0 0 0-3.601-3.957 10.94 10.94 0 0 1 2.468-.284H31l-1.2-1.6a11.08 11.08 0 0 0-8.782-4.409c-.406-.002-2.094-.001-4.262 0C9.171 1.005 3 7.177 3 14.76c0 5.249 3.189 9.951 8 11.931v3.725a11.754 11.754 0 0 0-6 10.288V47H3c-1.103 0-2 .897-2 2v8c0 1.103.897 2 2 2h8v2c0 1.103.897 2 2 2h46V39h4.869zM51 12h2l.001 12H51zM19 57v-6h2v6zm-7.851-8-1.992 1.594c-.654.523-1.658.523-2.313 0L4.851 49zM15 51h2v6h-2zm3.733-14.597-4.876-1.219-.557-2.778a11.443 11.443 0 0 1 5.433 3.997zM35 20.495v-4.99l6-.6v6.19zm14 1.4-6-.6v-6.59l6-.6zm-16-6.19v4.59l-2-.2v-4.19zm-2.056 6.394 4.056.406v.366a16.21 16.21 0 0 1-12.769 15.882A13.525 13.525 0 0 0 19 33.667V33c6.246 0 11.387-4.798 11.944-10.901zm-6.314-4.133L23 19.596v3.414h-2c-1.103 0-2-.897-2-2h-2c0 2.206 1.794 4 4 4h1.913c-.339 1.305-1.674 2.224-3.07 1.949l-4.646-.929-.393 1.961L17 28.43v3.607a13.337 13.337 0 0 0-4-1.809v-9.632l-1.707-1.707a.993.993 0 0 1-.293-.707v-.172c0-.551.449-1 1-1h1v-1c0-1.654 1.346-3 3-3h7v.171c0 1.755.573 3.421 1.63 4.785zM5 14.76C5 8.279 10.274 3.004 16.757 3.001h4.254a9.075 9.075 0 0 1 5.793 2.134c-1.91.268-3.736.961-5.359 2.043l1.109 1.664c.327-.218.666-.41 1.011-.591a8.01 8.01 0 0 1 3.69 2.758H18c-.551 0-1-.449-1-1s.449-1 1-1h1v-2h-1c-1.654 0-3 1.346-3 3 0 .379.078.738.207 1.072a5.008 5.008 0 0 0-4.134 4.075A3.006 3.006 0 0 0 9 18.01v.171c0 .801.312 1.555.879 2.122L11 21.424v3.071a10.915 10.915 0 0 1-6-9.735zm2 25.944c0-3.3 1.625-6.292 4.298-8.108l.846 4.22 7.961 1.99c.572 1.365.895 2.853.895 4.402V49h-6c0-1.103-.897-2-2-2v-8h-2v8H7zm-4 9.377 2.595 2.076C6.275 52.7 7.129 53 8 53s1.725-.3 2.405-.844L13 50.081V57H3zM13 59h4c1.103 0 2 .897 2 2h-6zm7.444 0H23c1.103 0 2 .897 2 2h-4c0-.732-.212-1.409-.556-2zm19.425-14L44 38.803 48.131 45H45v16h-2V45zm-12 8L32 46.803 36.131 53H33v8h-2v-8zM57 37v24h-2V37h-3.131L56 30.803 60.131 37z" fill="#000000" opacity="1" data-original="#000000" class=""></path></g></svg>