<svg xmlns="http://www.w3.org/2000/svg" version="1.1" xmlns:xlink="http://www.w3.org/1999/xlink" width="512" height="512" x="0" y="0" viewBox="0 0 73 73" style="enable-background:new 0 0 512 512" xml:space="preserve" class=""><g><path d="M66.757 48.644a.719.719 0 0 0 .393-.948c-.866-2.152-3.417-6.276-5.26-8.254a46.318 46.318 0 0 0 3.229-3.489.75.75 0 0 0-.048-1.008c-5.002-5.003-9.158-10.673-17.512-18.677a.75.75 0 0 0-.98-.05c-5.847 4.548-13.647 9.227-18.473 14.578a.738.738 0 0 0-.466-.459c-5.633-1.773-15.793-.872-21.208-2.577a.75.75 0 0 0-.838.284c-.57.806.272.655 4.77 7.812-.959.459-4.352 2.298-4.775 2.431a.72.72 0 0 0-.535.838c-.807.776-.808 1.388-.577 2.464.267 1.24.748 2.408 1.398 3.465 4.026 6.541 8.316 13.139 12.402 19.693.436.7 1.234 1.016 1.981.785 7.405-2.28 14.59-4.799 22.022-7.052 1.317 2.922 6.755.772 6.212-1.949 5.859-.447 12.007-1.303 17.888-2.105.925-.127 1.65-.92 1.766-1.93l.016-.145a.72.72 0 0 0 .34-1.13c-.225-.297-1.198-1.785-1.745-2.577zm-1.366-1.207c-5.393 1.163-12.172 2.905-17.818 4.183 4.486-3.868 9.095-7.24 13.235-11.128 1.485 1.592 3.55 4.81 4.583 6.945zM46.987 17.798c7.726 7.462 11.79 12.88 16.539 17.719-5.24 6.123-12.848 11.14-18.965 16.765l-.008.001c-.005.001-.008.005-.012.006-5.275-6.803-10.044-13.67-15.192-20.645 4.544-4.965 11.882-9.442 17.638-13.846zM27.19 31.768c.16.05.32.032.466-.019a.736.736 0 0 0 .124.296c5.152 6.96 9.77 13.626 15.212 20.68-3.543-1.015-8.498-.996-13.314-.97-3.275.017-6.374.031-8.663-.298-4.227-7.505-7.998-14.845-12.974-21.759 5.562 1.066 14.4.575 19.149 2.07zM11.153 37.14c3.085 5.039 5.84 10.244 8.734 15.37a.75.75 0 0 0 .53.373c5.926.983 17.905-.554 23.3 1.668.362.151.83 0 .987-.446.169-.059.223-.108.586-.446 6.143-1.307 13.527-3.246 19.916-4.642.027.05.547.813 1.384 2.075-6.52.86-13.04 1.64-19.397 2.322a.75.75 0 0 0-.669.702c-.056.954-.347 1.49-1.004 1.851a2.092 2.092 0 0 1-2.2-.132.75.75 0 0 0-.645-.107c-8.458 2.485-21.696 6.644-22.213 6.473-.252-.08-.528-.481-.71-.747A183.933 183.933 0 0 1 6.798 39.381c1.084-.533 3.469-1.83 4.355-2.241z" fill="#000000" opacity="1" data-original="#000000" class=""></path><path d="M41.292 38.575c1.406.54 2.898.487 4.218.447 3.88-.137 3.619.637 4.272.268.388-.22.336-.419.642-1.833.42-1.946.817-3.784.345-5.87-.254-1.125-.732-2.749-1.95-3.876-1.119-1.033-3.099-1.574-4.565-.537-.76.537-1.271 1.423-1.443 2.494-.089.55.023 1.084.158 1.572-2.78-.175-4.545 1.787-4.508 3.738.034 1.747 1.447 3.066 2.831 3.597zm2.471-5.669a.75.75 0 0 0 .963-.828c-.1-.658-.516-1.658-.434-2.173.106-.66.407-1.209.828-1.506.79-.56 1.984-.23 2.68.414.694.641 1.172 1.628 1.506 3.103.44 1.942-.027 3.714-.467 5.779-2.357-.516-4.991.252-7.01-.52-.885-.34-1.847-1.182-1.868-2.227-.028-1.463 1.662-2.7 3.802-2.042zM28.15 38.01a.749.749 0 1 0 .392-1.446c-3.981-1.083-8.268 1.416-11.64-.149a.75.75 0 0 0-.63 1.361c1.084.503 2.24.67 3.383.67 2.93 0 5.879-1.142 8.495-.435zM20.207 44.83a.75.75 0 0 0 .75.74c.103 0 11.659-.15 11.76-.159a.75.75 0 0 0-.01-1.5c-.102 0-11.658.15-11.76.16a.75.75 0 0 0-.74.76zM40.18 10.984a.75.75 0 0 0-.246 1.03l2.157 3.508a.75.75 0 1 0 1.277-.785l-2.156-3.507a.75.75 0 0 0-1.032-.246zM46.156 7.394a.75.75 0 0 0-.73.77l.143 5.167a.75.75 0 0 0 .75.73h.02a.75.75 0 0 0 .73-.77l-.143-5.168a.75.75 0 0 0-.77-.73zM52.295 10.831a12.496 12.496 0 0 0-2.127 3.724.75.75 0 0 0 .705 1.005c1.021 0 .508-1.27 2.578-3.772a.751.751 0 0 0-1.156-.957z" fill="#000000" opacity="1" data-original="#000000" class=""></path></g></svg>