<svg xmlns="http://www.w3.org/2000/svg" version="1.1" xmlns:xlink="http://www.w3.org/1999/xlink" width="512" height="512" x="0" y="0" viewBox="0 0 68 68" style="enable-background:new 0 0 512 512" xml:space="preserve" class=""><g><path d="M33.995 10.143c-3.65 0-7.226.272-10.631.808a.5.5 0 0 0-.416.572.508.508 0 0 0 .572.416 67.544 67.544 0 0 1 10.475-.796c17.167 0 31.132 6.081 31.132 13.555 0 2.85-2.154 5.637-5.982 7.936-.11.066-.23.13-.343.194-.241.14-.48.28-.733.415-1.496.8-3.207 1.53-5.109 2.172-.003 0-.004.004-.007.005l-.026.01a.499.499 0 0 0-.34.473v7.393c-16.647-5.575-33.647-1.042-37.173.02v-7.413a.499.499 0 0 0-.341-.474c-7.64-2.572-12.2-6.584-12.2-10.731 0-5.033 6.41-9.634 16.732-12.006a.5.5 0 0 0-.225-.975C8.582 14.2 1.873 19.173 1.873 24.697v21.447c0 4.67 4.695 8.93 12.881 11.687a.495.495 0 0 0 .452-.068.5.5 0 0 0 .208-.406v-4.448a.5.5 0 1 0-1 0v3.746c-7.243-2.58-11.541-6.48-11.541-10.511V28.361c.03.053.072.104.103.156.169.289.356.574.563.856.048.065.09.131.14.196.256.332.541.66.85.981.073.078.154.154.23.23.265.264.547.523.847.78.085.072.167.146.255.218.375.307.773.608 1.197.902.084.059.176.115.262.173.366.246.749.486 1.149.721.12.071.24.143.364.213.49.277.998.549 1.535.81.068.033.142.065.21.098a33.597 33.597 0 0 0 1.975.864c.6.242 1.215.478 1.86.701v12.628a.5.5 0 1 0 1 0v-4.527c2.596-.81 20.121-5.85 37.173-.003v12.999a.5.5 0 0 0 .66.474c8.186-2.757 12.881-7.017 12.881-11.687V24.698c0-8.026-14.415-14.555-32.132-14.555zm31.132 18.218v17.783c0 4.03-4.298 7.932-11.54 10.51V44l.032-7.75c.055-.02.104-.041.158-.06a39.594 39.594 0 0 0 2.172-.838 33.51 33.51 0 0 0 1.442-.643c.082-.04.17-.076.25-.116.54-.263 1.051-.535 1.543-.814.112-.064.22-.129.33-.193.418-.245.817-.496 1.197-.752.073-.048.15-.096.221-.146.435-.3.843-.608 1.226-.923.072-.06.139-.12.21-.18.317-.27.616-.546.896-.825.066-.066.135-.132.199-.198.315-.329.606-.663.867-1.002.04-.054.075-.108.115-.162.217-.293.411-.59.587-.89.028-.05.068-.097.095-.146z" fill="#ffffff" opacity="1" data-original="#000000" class=""></path><path d="M38.399 24.824c.287 3.286 3.057 5.771 6.3 5.771a6.332 6.332 0 0 0 6.305-6.875 6.32 6.32 0 0 0-6.85-5.747 6.294 6.294 0 0 0-4.297 2.234 6.28 6.28 0 0 0-1.458 4.617zm5.843-5.855a5.333 5.333 0 0 1 5.767 4.839 5.33 5.33 0 0 1-4.84 5.767c-2.931.249-5.518-1.915-5.774-4.84s1.918-5.51 4.847-5.766zM44.462 17.396l.045-.002a.5.5 0 0 0 .454-.542l-.112-1.285a.5.5 0 0 0-.996.088l.112 1.285a.5.5 0 0 0 .497.456zM45.704 31.074a.5.5 0 0 0-.454.542l.113 1.285a.5.5 0 1 0 .996-.088l-.113-1.285a.51.51 0 0 0-.542-.454zM40.824 18.58a.5.5 0 0 0 .41-.787l-.741-1.057a.5.5 0 1 0-.818.574l.74 1.057a.498.498 0 0 0 .409.213zM48.986 29.738a.5.5 0 0 0-.122.696l.74 1.057a.498.498 0 0 0 .696.122.5.5 0 0 0 .122-.696l-.74-1.057a.499.499 0 0 0-.696-.122zM38.473 20.471l-1.169-.545a.497.497 0 0 0-.664.242.499.499 0 0 0 .242.665l1.17.544a.5.5 0 1 0 .422-.906zM51.825 26.698a.497.497 0 0 0-.664.242.499.499 0 0 0 .242.664l1.17.545a.499.499 0 1 0 .422-.906zM38.365 27.9l-1.058.74a.5.5 0 1 0 .572.82l1.058-.74a.5.5 0 1 0-.572-.82zM51.488 18.71l-1.057.74a.5.5 0 1 0 .574.819l1.057-.74a.5.5 0 1 0-.574-.819zM53.836 23.806a.495.495 0 0 0-.514-.485l-1.29.039a.501.501 0 0 0 .014 1h.016l1.29-.04a.501.501 0 0 0 .484-.514zM35.532 24.364a.5.5 0 0 0 .5.484h.015l1.29-.04a.5.5 0 0 0 .485-.516c-.01-.275-.196-.495-.516-.484l-1.29.04a.5.5 0 0 0-.484.516zM41.042 30.66l-.544 1.17a.499.499 0 1 0 .906.421l.545-1.17a.499.499 0 1 0-.907-.421zM47.721 18.019a.5.5 0 0 0 .453-.289l.546-1.17a.499.499 0 1 0-.906-.422l-.546 1.17a.499.499 0 0 0 .453.711zM18.446 28.645c-.629-1.085-1.79-1.825-3.131-1.825a.5.5 0 1 0 0 1c1.45 0 2.63 1.18 2.63 2.63a.5.5 0 1 0 1 0c0-1.45 1.181-2.63 2.632-2.63a.5.5 0 1 0 0-1c-1.342 0-2.503.74-3.131 1.825zM17.577 19.314a.5.5 0 1 0 0-1c-1.342 0-2.503.74-3.131 1.825-.629-1.085-1.79-1.825-3.131-1.825a.5.5 0 1 0 0 1c1.45 0 2.63 1.18 2.63 2.63a.5.5 0 1 0 1 0c0-1.45 1.181-2.63 2.632-2.63zM25.94 27.314a.5.5 0 1 0 0 1c1.451 0 2.632 1.18 2.632 2.63a.5.5 0 1 0 1 0c0-1.45 1.18-2.63 2.63-2.63a.5.5 0 1 0 0-1c-1.34 0-2.502.74-3.13 1.825-.629-1.085-1.79-1.825-3.131-1.825zM28.203 18.808c-1.342 0-2.503.74-3.131 1.825-.629-1.085-1.79-1.825-3.131-1.825a.5.5 0 1 0 0 1c1.45 0 2.63 1.18 2.63 2.631a.5.5 0 1 0 1 0c0-1.45 1.181-2.63 2.632-2.63a.5.5 0 1 0 0-1z" fill="#ffffff" opacity="1" data-original="#000000" class=""></path></g></svg>