<svg xmlns="http://www.w3.org/2000/svg" version="1.1" xmlns:xlink="http://www.w3.org/1999/xlink" width="512" height="512" x="0" y="0" viewBox="0 0 682.667 682.667" style="enable-background:new 0 0 512 512" xml:space="preserve" class=""><g><defs><clipPath id="a" clipPathUnits="userSpaceOnUse"><path d="M0 512h512V0H0Z" fill="#000000" opacity="1" data-original="#000000"></path></clipPath></defs><g clip-path="url(#a)" transform="matrix(1.33333 0 0 -1.33333 0 682.667)"><path d="m0 0 113.061 38.419c7.861 2.671 16.398-1.535 19.069-9.397l44.114-129.818c2.671-7.86-1.536-16.398-9.396-19.069l-31.966-10.863c-5.377-1.827-10.74 2.749-9.8 8.35.943 5.624.395 11.591-1.932 17.328-5.996 14.789-22.333 22.966-37.76 18.883-18.122-4.795-28.107-23.808-22.179-41.253a31.835 31.835 0 0 1 8.37-13.014c4.183-3.924 2.838-10.839-2.593-12.684l-46.192-15.697-5.274 15.521" style="stroke-width:15;stroke-linecap:round;stroke-linejoin:round;stroke-miterlimit:10;stroke-dasharray:none;stroke-opacity:1" transform="translate(219.742 441.303)" fill="none" stroke="#000000" stroke-width="15" stroke-linecap="round" stroke-linejoin="round" stroke-miterlimit="10" stroke-dasharray="none" stroke-opacity="" data-original="#000000" class=""></path><path d="m0 0-48.95 144.052c-2.671 7.86 1.536 16.398 9.396 19.069l144.052 48.95 15.698-46.199c1.827-5.376-2.749-10.739-8.349-9.8-5.624.944-11.59.395-17.327-1.931-14.79-5.996-22.967-22.333-18.884-37.761 4.795-18.121 23.807-28.107 41.253-22.179a31.818 31.818 0 0 1 13.013 8.37c3.926 4.184 10.84 2.839 12.686-2.592l1.397-4.112" style="stroke-width:15;stroke-linecap:round;stroke-linejoin:round;stroke-miterlimit:10;stroke-dasharray:none;stroke-opacity:1" transform="translate(84.253 218.701)" fill="none" stroke="#000000" stroke-width="15" stroke-linecap="round" stroke-linejoin="round" stroke-miterlimit="10" stroke-dasharray="none" stroke-opacity="" data-original="#000000" class=""></path><path d="M0 0a31.597 31.597 0 0 0-11.755-8.308c-5.738-2.326-11.704-2.875-17.328-1.931-5.601.939-10.177-4.424-8.35-9.801l10.862-31.965c2.672-7.861-1.535-16.398-9.396-19.069l-129.819-44.114c-7.86-2.671-16.398 1.536-19.069 9.396l-48.95 144.052 46.199 15.699c5.377 1.827 10.74-2.749 9.8-8.35-.944-5.624-.395-11.59 1.931-17.328 5.996-14.789 22.333-22.966 37.761-18.883 18.121 4.795 28.107 23.807 22.178 41.253a31.825 31.825 0 0 1-8.37 13.014c-4.183 3.925-2.838 10.839 2.593 12.685l46.192 15.696 15.697-46.192c1.845-5.431 8.76-6.776 12.685-2.592a31.855 31.855 0 0 0 13.014 8.37C-16.68 57.56 2.333 47.574 7.128 29.453c.069-.264.136-.526.198-.79" style="stroke-width:15;stroke-linecap:round;stroke-linejoin:round;stroke-miterlimit:10;stroke-dasharray:none;stroke-opacity:1" transform="translate(318.058 180.441)" fill="none" stroke="#000000" stroke-width="15" stroke-linecap="round" stroke-linejoin="round" stroke-miterlimit="10" stroke-dasharray="none" stroke-opacity="" data-original="#000000" class=""></path><path d="M0 0v-52.107C0-60.409-6.73-67.14-15.032-67.14h-137.11c-8.301 0-15.031 6.731-15.031 15.033v33.76c0 5.679 6.058 9.285 11.058 6.593 5.021-2.702 10.847-4.102 17.028-3.746 15.932.919 28.93 13.757 30.028 29.677 1.29 18.701-13.498 34.272-31.923 34.272a31.823 31.823 0 0 1-15.015-3.738c-5.062-2.697-11.176.801-11.176 6.537v33.754c0 8.302 6.73 15.032 15.031 15.032h33.755c5.736 0 9.234 6.114 6.536 11.177a31.826 31.826 0 0 0-3.738 15.015c0 18.424 15.571 33.212 34.272 31.923 15.921-1.098 28.758-14.096 29.677-30.029.357-6.181-1.043-12.006-3.746-17.027-2.692-5 .914-11.059 6.593-11.059h33.761C-6.73 100.034 0 93.304 0 85.002V30" style="stroke-width:15;stroke-linecap:round;stroke-linejoin:round;stroke-miterlimit:10;stroke-dasharray:none;stroke-opacity:1" transform="translate(485.155 111.151)" fill="none" stroke="#000000" stroke-width="15" stroke-linecap="round" stroke-linejoin="round" stroke-miterlimit="10" stroke-dasharray="none" stroke-opacity="" data-original="#000000" class=""></path><path d="M0 0a38.227 38.227 0 0 0 1.356-5.127c3.545-18.54-7.215-37.331-25.807-43.234-18.807-5.972-39.365 3.729-46.674 22.058-8.1 20.311 2.541 43.055 23.008 50.01L-60.878 61.26" style="stroke-width:15;stroke-linecap:round;stroke-linejoin:round;stroke-miterlimit:10;stroke-dasharray:none;stroke-opacity:1" transform="translate(84.176 57.62)" fill="none" stroke="#000000" stroke-width="15" stroke-linecap="round" stroke-linejoin="round" stroke-miterlimit="10" stroke-dasharray="none" stroke-opacity="" data-original="#000000" class=""></path><path d="M0 0v0" style="stroke-width:15;stroke-linecap:round;stroke-linejoin:round;stroke-miterlimit:10;stroke-dasharray:none;stroke-opacity:1" transform="translate(7.5 165.363)" fill="none" stroke="#000000" stroke-width="15" stroke-linecap="round" stroke-linejoin="round" stroke-miterlimit="10" stroke-dasharray="none" stroke-opacity="" data-original="#000000" class=""></path><path d="M0 0a38.227 38.227 0 0 0-1.356 5.127c-3.545 18.54 7.215 37.331 25.807 43.234 18.807 5.972 39.365-3.729 46.674-22.058 8.1-20.311-2.541-43.055-23.008-50.01L60.878-61.26" style="stroke-width:15;stroke-linecap:round;stroke-linejoin:round;stroke-miterlimit:10;stroke-dasharray:none;stroke-opacity:1" transform="translate(427.824 454.38)" fill="none" stroke="#000000" stroke-width="15" stroke-linecap="round" stroke-linejoin="round" stroke-miterlimit="10" stroke-dasharray="none" stroke-opacity="" data-original="#000000" class=""></path><path d="M0 0v0" style="stroke-width:15;stroke-linecap:round;stroke-linejoin:round;stroke-miterlimit:10;stroke-dasharray:none;stroke-opacity:1" transform="translate(504.5 346.637)" fill="none" stroke="#000000" stroke-width="15" stroke-linecap="round" stroke-linejoin="round" stroke-miterlimit="10" stroke-dasharray="none" stroke-opacity="" data-original="#000000" class=""></path></g></g></svg>