<svg xmlns="http://www.w3.org/2000/svg" version="1.1" xmlns:xlink="http://www.w3.org/1999/xlink" width="512" height="512" x="0" y="0" viewBox="0 0 68 68" style="enable-background:new 0 0 512 512" xml:space="preserve" class=""><g><path d="M52.326 66.403h-40.99c-2.36 0-4.28-1.92-4.28-4.28V9.263a4.29 4.29 0 0 1 4.28-4.29h.57a.5.5 0 0 1 .5.535c-.012.155-.02.261-.02.375v52.86a3.289 3.289 0 0 0 3.29 3.28h40.42a.5.5 0 0 1 .498.552 4.274 4.274 0 0 1-4.268 3.828zm-40.99-60.43a3.29 3.29 0 0 0-3.28 3.29v52.86a3.284 3.284 0 0 0 3.28 3.28h40.99a3.28 3.28 0 0 0 3.167-2.38H15.677a4.29 4.29 0 0 1-4.29-4.28V5.973z" fill="#000000" opacity="1" data-original="#000000" class=""></path><path d="M56.658 63.027H15.672a4.29 4.29 0 0 1-4.285-4.286V5.882a4.29 4.29 0 0 1 4.285-4.285h30.016a.5.5 0 0 1 .35.143l14.755 14.434a.5.5 0 0 1 .15.357v42.21a4.29 4.29 0 0 1-4.285 4.286zM15.672 2.597a3.289 3.289 0 0 0-3.285 3.285v52.86a3.29 3.29 0 0 0 3.285 3.285h40.986a3.29 3.29 0 0 0 3.286-3.286v-42L45.484 2.598z" fill="#000000" opacity="1" data-original="#000000" class=""></path><path d="M60.444 17.031H49.473a4.29 4.29 0 0 1-4.285-4.285V2.096a.5.5 0 0 1 .85-.356l14.755 14.434a.5.5 0 0 1-.35.857zM46.188 3.285v9.461a3.289 3.289 0 0 0 3.285 3.285h9.745zM22.635 8.223H16.66a.734.734 0 0 0-.54.227.765.765 0 0 0-.214.54.745.745 0 0 0 .754.753h2.198v6.626c0 .217.08.411.23.56.149.15.343.23.56.23.215 0 .41-.078.563-.226a.762.762 0 0 0 .24-.564V9.743h2.185a.762.762 0 0 0 .54-.214.732.732 0 0 0 .226-.54c0-.21-.077-.397-.223-.543s-.334-.223-.543-.223zM31.98 15.887l-.649-.62c.18-.271.34-.553.472-.84a.778.778 0 0 0 .087-.352.72.72 0 0 0-.222-.535.778.778 0 0 0-.953-.081.761.761 0 0 0-.274.32c-.08.171-.153.32-.222.443l-2.285-2.154a13.002 13.002 0 0 1-.728-.716 1.66 1.66 0 0 1-.298-.449 1.288 1.288 0 0 1-.094-.512c0-.227.087-.421.266-.594.357-.344 1.067-.362 1.784.026.326.163.612.09.81-.118a.668.668 0 0 0 .188-.466.628.628 0 0 0-.106-.345.669.669 0 0 0-.221-.223c-1.05-.7-2.232-.709-3.05-.257-.38.21-.675.5-.877.858-.2.357-.302.753-.302 1.18 0 .379.07.721.21 1.018.102.216.24.441.412.67a4.023 4.023 0 0 0-.772.81c-.314.43-.474.95-.474 1.545 0 .464.113.908.337 1.32.226.417.585.76 1.067 1.018.475.255 1.076.384 1.786.384.494 0 .97-.09 1.414-.27a4.508 4.508 0 0 0 1.03-.584l.65.62c.309.285.823.27 1.087-.015a.742.742 0 0 0 .197-.517.682.682 0 0 0-.081-.34.892.892 0 0 0-.188-.224zm-2.746-.538a2.545 2.545 0 0 1-1.458.444c-.457 0-.827-.12-1.132-.37a1.092 1.092 0 0 1-.43-.892c0-.327.08-.603.244-.843a2.26 2.26 0 0 1 .468-.503zM40.105 15.14c-.334.174-.665.31-.984.401a4.05 4.05 0 0 1-1.096.134c-.64 0-1.189-.132-1.632-.392a2.49 2.49 0 0 1-.994-1.06c-.226-.454-.34-.98-.34-1.562s.114-1.108.34-1.563c.22-.445.555-.801.994-1.06.443-.26.992-.391 1.632-.391.413 0 .782.045 1.095.134.318.092.65.226.989.403a.756.756 0 0 0 .857-.14.7.7 0 0 0 .2-.49c0-.302-.135-.535-.39-.675a6.527 6.527 0 0 0-1.33-.574 5.375 5.375 0 0 0-1.53-.202c-.837 0-1.602.186-2.273.553a4.02 4.02 0 0 0-1.598 1.597c-.383.686-.578 1.496-.578 2.408 0 .912.195 1.722.578 2.408a4.02 4.02 0 0 0 1.598 1.597c.67.367 1.436.553 2.274.553a5.38 5.38 0 0 0 1.53-.202c.443-.133.89-.326 1.326-.573a.729.729 0 0 0 .394-.675.693.693 0 0 0-.206-.5.763.763 0 0 0-.856-.13zM24.438 31.821h-5.924a2.176 2.176 0 0 1-2.173-2.174v-5.924a2.18 2.18 0 0 1 2.173-2.18h5.924a2.18 2.18 0 0 1 2.174 2.18v5.924a2.176 2.176 0 0 1-2.174 2.174zm-5.924-9.279c-.647 0-1.173.53-1.173 1.181v5.924c0 .648.526 1.174 1.173 1.174h5.924c.647 0 1.174-.526 1.174-1.174v-5.924c0-.651-.527-1.18-1.174-1.18zM55.49 23.93H37.229a.5.5 0 1 1 0-1H55.49a.5.5 0 1 1 0 1zM34.202 23.93h-3.85a.5.5 0 1 1 0-1h3.85a.5.5 0 1 1 0 1zM55.49 27.181h-7.876a.5.5 0 1 1 0-1h7.876a.5.5 0 1 1 0 1zM43.9 27.181H30.351a.5.5 0 1 1 0-1h13.55a.5.5 0 1 1 0 1zM47.201 30.433h-7.634a.5.5 0 1 1 0-1h7.634a.5.5 0 1 1 0 1zM36.54 30.433h-6.189a.5.5 0 1 1 0-1h6.19a.5.5 0 1 1 0 1z" fill="#000000" opacity="1" data-original="#000000" class=""></path><path d="M20.684 28.389a.498.498 0 0 1-.354-.147l-.83-.83a.5.5 0 1 1 .706-.707l.478.477 2.061-2.062a.5.5 0 1 1 .707.707l-2.415 2.415a.498.498 0 0 1-.353.147zM24.438 44.42h-5.924a2.176 2.176 0 0 1-2.173-2.173v-5.924a2.18 2.18 0 0 1 2.173-2.18h5.924a2.18 2.18 0 0 1 2.174 2.18v5.924a2.176 2.176 0 0 1-2.174 2.174zm-5.924-9.278c-.647 0-1.173.53-1.173 1.181v5.924c0 .647.526 1.174 1.173 1.174h5.924c.647 0 1.174-.527 1.174-1.174v-5.924c0-.65-.527-1.18-1.174-1.18h-5.924zM55.49 36.53H37.229a.5.5 0 1 1 0-1H55.49a.5.5 0 1 1 0 1zM34.202 36.53h-3.85a.5.5 0 1 1 0-1h3.85a.5.5 0 1 1 0 1zM55.49 39.781h-7.876a.5.5 0 1 1 0-1h7.876a.5.5 0 1 1 0 1zM43.9 39.781H30.351a.5.5 0 1 1 0-1h13.55a.5.5 0 1 1 0 1zM47.201 43.033h-7.634a.5.5 0 1 1 0-1h7.634a.5.5 0 1 1 0 1zM36.54 43.033h-6.189a.5.5 0 1 1 0-1h6.19a.5.5 0 1 1 0 1z" fill="#000000" opacity="1" data-original="#000000" class=""></path><path d="M20.684 40.989a.498.498 0 0 1-.354-.146l-.83-.832a.5.5 0 1 1 .706-.707l.478.478 2.061-2.062a.5.5 0 1 1 .707.707l-2.415 2.416a.498.498 0 0 1-.353.146zM24.438 57.02h-5.924a2.176 2.176 0 0 1-2.173-2.173v-5.924a2.18 2.18 0 0 1 2.173-2.18h5.924a2.18 2.18 0 0 1 2.174 2.18v5.924a2.176 2.176 0 0 1-2.174 2.174zm-5.924-9.278c-.647 0-1.173.53-1.173 1.181v5.924c0 .647.526 1.174 1.173 1.174h5.924c.647 0 1.174-.527 1.174-1.174v-5.924c0-.65-.527-1.18-1.174-1.18zM55.49 49.13H37.229a.5.5 0 1 1 0-1H55.49a.5.5 0 1 1 0 1zM34.202 49.13h-3.85a.5.5 0 1 1 0-1h3.85a.5.5 0 1 1 0 1zM55.49 52.382h-7.876a.5.5 0 1 1 0-1h7.876a.5.5 0 1 1 0 1zM43.9 52.382H30.351a.5.5 0 1 1 0-1h13.55a.5.5 0 1 1 0 1zM47.201 55.633h-7.634a.5.5 0 1 1 0-1h7.634a.5.5 0 1 1 0 1zM36.54 55.633h-6.189a.5.5 0 1 1 0-1h6.19a.5.5 0 1 1 0 1z" fill="#000000" opacity="1" data-original="#000000" class=""></path><path d="M20.684 53.59a.498.498 0 0 1-.354-.147l-.83-.831a.5.5 0 1 1 .706-.707l.478.477 2.061-2.061a.5.5 0 1 1 .707.707l-2.415 2.415a.498.498 0 0 1-.353.146z" fill="#000000" opacity="1" data-original="#000000" class=""></path></g></svg>