<svg xmlns="http://www.w3.org/2000/svg" version="1.1" xmlns:xlink="http://www.w3.org/1999/xlink" width="512" height="512" x="0" y="0" viewBox="0 0 64 64" style="enable-background:new 0 0 512 512" xml:space="preserve" class=""><g><path d="M36 45h2v19h-2zM26 45h2v19h-2z" fill="#000000" opacity="1" data-original="#000000" class=""></path><path d="M38 49h-1v-2h1a3 3 0 0 0 3-3V33a5.006 5.006 0 0 0-5-5h-8a5.006 5.006 0 0 0-5 5v11a3 3 0 0 0 3 3h1v2h-1a5.006 5.006 0 0 1-5-5V33a7.008 7.008 0 0 1 7-7h8a7.008 7.008 0 0 1 7 7v11a5.006 5.006 0 0 1-5 5z" fill="#000000" opacity="1" data-original="#000000" class=""></path><path d="M32 28a7 7 0 1 1 7-7 7.008 7.008 0 0 1-7 7zm0-12a5 5 0 1 0 5 5 5.006 5.006 0 0 0-5-5zM31 51h2v13h-2zM54 42h2v19h-2zM44 42h2v19h-2z" fill="#000000" opacity="1" data-original="#000000" class=""></path><path d="M56 46h-1v-2h1a3 3 0 0 0 3-3V30a5.006 5.006 0 0 0-5-5h-8a5.006 5.006 0 0 0-3.727 1.667l-1.49-1.334A7.01 7.01 0 0 1 46 23h8a7.008 7.008 0 0 1 7 7v11a5.006 5.006 0 0 1-5 5z" fill="#000000" opacity="1" data-original="#000000" class=""></path><path d="M50 25a7 7 0 1 1 7-7 7.008 7.008 0 0 1-7 7zm0-12a5 5 0 1 0 5 5 5.006 5.006 0 0 0-5-5zM49 48h2v13h-2zM18 42h2v19h-2zM8 42h2v19H8z" fill="#000000" opacity="1" data-original="#000000" class=""></path><path d="M9 46H8a5.006 5.006 0 0 1-5-5V30a7.008 7.008 0 0 1 7-7h8a7.012 7.012 0 0 1 5.217 2.333l-1.49 1.334A5.006 5.006 0 0 0 18 25h-8a5.006 5.006 0 0 0-5 5v11a3 3 0 0 0 3 3h1z" fill="#000000" opacity="1" data-original="#000000" class=""></path><path d="M14 25a7 7 0 1 1 7-7 7.008 7.008 0 0 1-7 7zm0-12a5 5 0 1 0 5 5 5.006 5.006 0 0 0-5-5z" fill="#000000" opacity="1" data-original="#000000" class=""></path><path d="M24 14a7 7 0 1 1 7-7 7.008 7.008 0 0 1-7 7zm0-12a5 5 0 1 0 5 5 5.006 5.006 0 0 0-5-5zM40 14a7 7 0 1 1 7-7 7.008 7.008 0 0 1-7 7zm0-12a5 5 0 1 0 5 5 5.006 5.006 0 0 0-5-5zM13 48h2v13h-2z" fill="#000000" opacity="1" data-original="#000000" class=""></path></g></svg>