<svg xmlns="http://www.w3.org/2000/svg" version="1.1" xmlns:xlink="http://www.w3.org/1999/xlink" width="512" height="512" x="0" y="0" viewBox="0 0 513.441 513.441" style="enable-background:new 0 0 512 512" xml:space="preserve" class=""><g><path d="M31 332.29c0 50.079 40.742 90.821 90.821 90.821 50.078 0 90.82-40.742 90.82-90.821s-40.742-90.821-90.82-90.821C71.742 241.468 31 282.21 31 332.29zm166.642 0c0 41.808-34.013 75.821-75.82 75.821S46 374.098 46 332.29s34.014-75.821 75.821-75.821 75.821 34.012 75.821 75.821z" fill="#ffffff" opacity="1" data-original="#000000" class=""></path><path d="M496.199 269.876c-.018-.039-.031-.08-.05-.119l-60.835-126.121c-8.405-17.427-22.366-31.251-39.118-39.765l-5.742-11.906c-9.563-19.825-29.965-32.634-51.975-32.634-31.818 0-57.704 25.886-57.704 57.705v22.157a86.42 86.42 0 0 0-10.077 29.797h-27.953a86.418 86.418 0 0 0-10.078-29.799v-22.155c0-31.818-25.886-57.705-57.704-57.705-22.01 0-42.411 12.81-51.975 32.635l-5.742 11.905c-16.752 8.515-30.713 22.339-39.118 39.765L67.591 165.48a7.5 7.5 0 0 0 13.51 6.517l10.537-21.845c11.944-24.764 37.429-40.765 64.923-40.765 39.746 0 72.082 32.335 72.082 72.081v92.264a121.992 121.992 0 0 0-27.946-34.274 7.5 7.5 0 1 0-9.717 11.426c23.936 20.355 37.663 50.026 37.663 81.405 0 58.901-47.92 106.821-106.821 106.821S15 391.191 15 332.29s47.92-106.821 106.821-106.821c15.311 0 30.089 3.169 43.925 9.419a7.5 7.5 0 0 0 6.176-13.67c-15.79-7.132-32.646-10.749-50.101-10.749-26.016 0-50.15 8.202-69.962 22.15l15.321-31.764a7.5 7.5 0 1 0-13.51-6.517l-36.378 75.419c-.019.039-.032.08-.05.119C6.301 288.142 0 309.492 0 332.29c0 67.172 54.648 121.821 121.821 121.821 66.326 0 120.435-53.281 121.789-119.288h26.222c1.354 66.007 55.463 119.288 121.788 119.288 67.173 0 121.821-54.649 121.821-121.821 0-22.798-6.3-44.148-17.242-62.414zm-74.395-119.724 39.777 82.465c-19.811-13.947-43.945-22.149-69.961-22.149-45.98 0-86.087 25.609-106.82 63.31v-92.31c0-39.746 32.335-72.081 72.081-72.081 27.494 0 52.978 16.002 64.923 40.765zM269.8 319.823h-26.157V183.989H269.8zm68.679-245.492c15.552 0 29.999 8.653 37.436 22.203a86.01 86.01 0 0 0-19.034-2.146c-23.787 0-45.374 9.591-61.106 25.104v-2.456c-.001-23.548 19.157-42.705 42.704-42.705zM156.561 94.387a86.01 86.01 0 0 0-19.034 2.146c7.438-13.55 21.885-22.203 37.436-22.203 23.547 0 42.704 19.157 42.704 42.705v2.456c-15.732-15.513-37.319-25.104-61.106-25.104zM391.62 439.111c-58.901 0-106.82-47.92-106.82-106.821s47.919-106.821 106.82-106.821 106.821 47.92 106.821 106.821-47.92 106.821-106.821 106.821z" fill="#ffffff" opacity="1" data-original="#000000" class=""></path><path d="M425.693 248.123a7.499 7.499 0 0 0-9.771 4.126 7.498 7.498 0 0 0 4.126 9.771c28.79 11.694 47.393 39.277 47.393 70.269 0 41.808-34.014 75.821-75.821 75.821s-75.82-34.013-75.82-75.821c0-41.725 33.945-75.736 75.671-75.817a7.5 7.5 0 0 0-.015-15h-.015c-49.979.097-90.642 40.838-90.642 90.817 0 50.079 40.742 90.821 90.82 90.821 50.079 0 90.821-40.742 90.821-90.821.001-37.125-22.273-70.163-56.747-84.166z" fill="#ffffff" opacity="1" data-original="#000000" class=""></path></g></svg>